<svg viewBox="143.68536 71.42666666666666 433.3368 71.42666666666666" version="1.1" xmlns="http://www.w3.org/2000/svg" id="Layer_1" style="max-height: 500px" width="433.3368" height="71.42666666666666">
  
  <path d="M333.05,138.17l-48.36-62.11h21.12l35.93,47.82,36.11-47.82h21.03l-48.27,62.11h-17.57Z"/>
  <path d="M430.07,76.06h-17.57l-48.35,62.11h20.4l36.65-47.83,36.74,47.83h20.4l-48.27-62.11Z"/>
  <path d="M501.49,123.08h71.34v15.08h-87.93v-62.11h16.59v47.03Z"/>
  <path d="M255.53,138.29h-78.09c-17.18,0-31.15-13.97-31.15-31.15s13.97-31.15,31.15-31.15h78.09c17.18,0,31.15,13.97,31.15,31.15s-13.97,31.15-31.15,31.15ZM177.44,91.08c-8.85,0-16.06,7.2-16.06,16.06s7.2,16.06,16.06,16.06h78.09c8.85,0,16.06-7.2,16.06-16.06s-7.2-16.06-16.06-16.06h-78.09Z"/>
</svg>