<svg width="187" height="20" viewBox="0 0 187 20" fill="none" xmlns="http://www.w3.org/2000/svg">
<path d="M35.6689 0C41.1451 0.000189384 45.5976 4.48486 45.5977 10C45.5977 15.5152 41.1451 19.9998 35.6689 20H10.7764C5.30015 19.9999 0.84668 15.5152 0.84668 10C0.846726 4.48481 5.30018 0.000109173 10.7764 0H35.6689ZM63.1494 15.374L74.6631 0.0224609H81.3662L65.9795 19.9619H60.3789L44.9639 0.0224609H51.6963L63.1494 15.374ZM106.691 19.9619H100.189L88.4775 4.60645L76.7949 19.9619H70.293L85.7041 0.0224609H91.3057L106.691 19.9619ZM114.071 15.1211H136.812V19.9619H108.783V0.0224609H114.071V15.1211ZM10.7764 4.84473C7.95545 4.84484 5.65727 7.15578 5.65723 10C5.65723 12.8443 7.95224 15.1561 10.7764 15.1562H35.6689C38.4898 15.1561 40.7881 12.8442 40.7881 10C40.788 7.15583 38.493 4.84492 35.6689 4.84473H10.7764ZM164.963 3.76953C164.963 4.50953 165.196 5.08357 165.663 5.49023C166.136 5.89686 166.943 6.09958 168.083 6.09961H170.354C171.493 6.09958 172.297 5.89687 172.764 5.49023C173.237 5.08357 173.474 4.50947 173.474 3.76953V0H174.573V3.76953C174.573 5.98953 173.17 7.0996 170.363 7.09961H168.073C165.267 7.0996 163.863 5.98953 163.863 3.76953V0H164.963V3.76953ZM148.441 0C149.395 1.38143e-05 150.098 0.203699 150.552 0.610352C151.005 1.01697 151.231 1.54707 151.231 2.2002C151.231 2.8666 151.005 3.39988 150.552 3.7998C150.105 4.19979 149.401 4.40038 148.441 4.40039H141.911V7H140.812V0H148.441ZM153.874 6H162.544V7H152.774V0H153.874V6ZM186.547 1H178.877C177.937 1.00005 177.467 1.3399 177.467 2.01953C177.467 2.70615 177.937 3.04975 178.877 3.0498H184.417C185.284 3.0498 185.92 3.2299 186.327 3.58984C186.74 3.94309 186.947 4.41975 186.947 5.01953C186.947 5.61286 186.74 6.0933 186.327 6.45996C185.92 6.81996 185.284 7 184.417 7H176.717V6H184.387C185.327 6 185.797 5.66016 185.797 4.98047C185.797 4.2938 185.327 3.9502 184.387 3.9502H178.848C177.981 3.9502 177.34 3.77326 176.927 3.41992C176.52 3.06004 176.317 2.58012 176.317 1.98047C176.317 1.3872 176.52 0.909791 176.927 0.549805C177.34 0.183138 177.981 0 178.848 0H186.547V1ZM141.911 3.40039H148.421C149.527 3.40039 150.081 3.00006 150.081 2.2002C150.081 1.4002 149.528 1 148.421 1H141.911V3.40039Z" fill="#282828"/>
</svg>
