<svg width="212" height="20" viewBox="0 0 212 20" fill="none" xmlns="http://www.w3.org/2000/svg">
<path d="M34.8213 0C40.2976 0 44.7509 4.48474 44.751 10C44.751 15.5153 40.2976 20 34.8213 20H9.92969C4.45338 20 0 15.5153 0 10C4.67645e-05 4.48474 4.45341 0 9.92969 0H34.8213ZM62.3018 15.374L73.8154 0.0224609H80.5195L65.1328 19.9619H59.5322L44.1172 0.0224609H50.8486L62.3018 15.374ZM105.845 19.9619H99.3418L87.6309 4.60645L75.9482 19.9619H69.4453L84.8574 0.0224609H90.458L105.845 19.9619ZM113.224 15.1211H135.964V19.9619H107.936V0.0224609H113.224V15.1211ZM9.92969 4.84473C7.10868 4.84473 4.81059 7.15571 4.81055 10C4.81055 12.8443 7.10547 15.1562 9.92969 15.1562H34.8213C37.6423 15.1562 39.9404 12.8443 39.9404 10C39.9404 7.15571 37.6455 4.84473 34.8213 4.84473H9.92969ZM152.524 7H151.164L146.244 0.929688L141.324 7H139.964L145.654 0H146.834L152.524 7ZM163.668 1H157.798C156.651 1.00001 155.821 1.22636 155.308 1.67969C154.801 2.13302 154.548 2.74001 154.548 3.5C154.548 4.25999 154.801 4.86698 155.308 5.32031C155.821 5.77364 156.651 5.99999 157.798 6H163.668V7H157.788C156.288 7 155.178 6.67683 154.458 6.03027C153.738 5.38361 153.378 4.54 153.378 3.5C153.378 2.46 153.738 1.61639 154.458 0.969727C155.178 0.323167 156.288 0 157.788 0H163.668V1ZM175.504 1H169.634C168.487 1.00001 167.657 1.22636 167.144 1.67969C166.637 2.13302 166.384 2.74001 166.384 3.5C166.384 4.25999 166.637 4.86698 167.144 5.32031C167.657 5.77364 168.487 5.99999 169.634 6H175.504V7H169.624C168.124 7 167.014 6.67683 166.294 6.03027C165.574 5.38361 165.214 4.54 165.214 3.5C165.214 2.46 165.574 1.61639 166.294 0.969727C167.014 0.323167 168.124 0 169.624 0H175.504V1ZM187.49 1H178.62V3.0498H186.47V3.9502H178.62V6H187.49V7H177.52V0H187.49V1ZM199.242 1H191.572C190.632 1 190.162 1.33984 190.162 2.01953C190.162 2.7062 190.632 3.0498 191.572 3.0498H197.112C197.979 3.04985 198.616 3.22989 199.022 3.58984C199.436 3.94307 199.641 4.41985 199.642 5.01953C199.642 5.61273 199.436 6.09333 199.022 6.45996C198.616 6.81992 197.979 6.99996 197.112 7H189.412V6H197.082C198.022 5.99999 198.492 5.66015 198.492 4.98047C198.492 4.29381 198.022 3.9502 197.082 3.9502H191.542C190.675 3.9502 190.035 3.77325 189.622 3.41992C189.216 3.06002 189.012 2.58025 189.012 1.98047C189.012 1.38714 189.215 0.909805 189.622 0.549805C190.035 0.183221 190.675 2.52148e-08 191.542 0H199.242V1ZM211.312 1H203.643C202.703 1 202.233 1.33984 202.232 2.01953C202.232 2.7062 202.703 3.0498 203.643 3.0498H209.183C210.049 3.04985 210.686 3.22989 211.093 3.58984C211.506 3.94307 211.712 4.41985 211.712 5.01953C211.712 5.61273 211.506 6.09333 211.093 6.45996C210.686 6.81992 210.049 6.99996 209.183 7H201.482V6H209.152C210.092 5.99999 210.562 5.66015 210.562 4.98047C210.562 4.29381 210.092 3.9502 209.152 3.9502H203.612C202.746 3.9502 202.106 3.77325 201.692 3.41992C201.286 3.06002 201.082 2.58025 201.082 1.98047C201.082 1.38714 201.286 0.909805 201.692 0.549805C202.106 0.183221 202.746 2.52148e-08 203.612 0H211.312V1Z" fill="#282828"/>
</svg>
