<svg width="178" height="20" viewBox="0 0 178 20" fill="none" xmlns="http://www.w3.org/2000/svg">
<path d="M35.6689 0C41.1451 0.000189384 45.5976 4.48486 45.5977 10C45.5977 15.5152 41.1451 19.9998 35.6689 20H10.7764C5.30015 19.9999 0.84668 15.5152 0.84668 10C0.846726 4.48481 5.30018 0.000109173 10.7764 0H35.6689ZM63.1494 15.374L74.6631 0.0224609H81.3662L65.9795 19.9619H60.3789L44.9639 0.0224609H51.6963L63.1494 15.374ZM106.691 19.9619H100.189L88.4775 4.60645L76.7949 19.9619H70.293L85.7041 0.0224609H91.3057L106.691 19.9619ZM114.071 15.1211H136.812V19.9619H108.783V0.0224609H114.071V15.1211ZM10.7764 4.84473C7.95545 4.84484 5.65727 7.15578 5.65723 10C5.65723 12.8443 7.95224 15.1561 10.7764 15.1562H35.6689C38.4898 15.1561 40.7881 12.8442 40.7881 10C40.788 7.15583 38.493 4.84492 35.6689 4.84473H10.7764ZM149.051 0C149.517 0 149.985 0.0936239 150.451 0.280273C150.871 0.460274 151.248 0.717448 151.581 1.05078C151.914 1.38408 152.172 1.76383 152.352 2.19043C152.538 2.62363 152.631 3.08692 152.631 3.58008C152.631 4.08008 152.538 4.54714 152.352 4.98047C152.172 5.40713 151.914 5.78679 151.581 6.12012C151.261 6.44009 150.884 6.69322 150.451 6.87988C149.991 7.07322 149.524 7.16992 149.051 7.16992H144.392C143.912 7.16992 143.448 7.07322 143.001 6.87988C142.568 6.69989 142.188 6.44669 141.861 6.12012C141.528 5.7868 141.271 5.40711 141.091 4.98047C140.904 4.52714 140.812 4.06007 140.812 3.58008C140.812 3.10691 140.904 2.64361 141.091 2.19043C141.271 1.76384 141.528 1.38407 141.861 1.05078C142.195 0.717501 142.574 0.460269 143.001 0.280273C143.454 0.0936068 143.918 0 144.392 0H149.051ZM164.228 5.78027V0.0703125H165.328V7.07031H164.288L155.808 1.36035V7.07031H154.708V0.0703125H155.748L164.228 5.78027ZM177.734 1.07031H168.864V3.12012H176.715V4.02051H168.864V6.07031H177.734V7.07031H167.765V0.0703125H177.734V1.07031ZM144.392 0.990234C144.032 0.990234 143.694 1.0602 143.381 1.2002C143.068 1.33346 142.795 1.51688 142.562 1.75C142.328 1.98333 142.141 2.25698 142.001 2.57031C141.868 2.88355 141.801 3.2202 141.801 3.58008C141.801 3.93989 141.868 4.27665 142.001 4.58984C142.141 4.90315 142.328 5.17993 142.562 5.41992C142.795 5.65319 143.068 5.84048 143.381 5.98047C143.694 6.1138 144.032 6.18066 144.392 6.18066H149.051C149.411 6.18066 149.748 6.1138 150.062 5.98047C150.375 5.84048 150.648 5.65321 150.881 5.41992C151.114 5.17993 151.298 4.90317 151.432 4.58984C151.571 4.27666 151.642 3.93987 151.642 3.58008C151.642 3.22022 151.572 2.88353 151.432 2.57031C151.298 2.25698 151.114 1.98333 150.881 1.75C150.648 1.51688 150.375 1.33346 150.062 1.2002C149.748 1.0602 149.411 0.990234 149.051 0.990234H144.392Z" fill="#282828"/>
</svg>
